<svg xmlns="http://www.w3.org/2000/svg" version="1.1" xmlns:xlink="http://www.w3.org/1999/xlink" xmlns:svgjs="http://svgjs.dev/svgjs" width="1500" height="704" viewBox="0 0 1500 704"><g transform="matrix(1,0,0,1,-0.9090909090911055,-0.17568578025810666)"><svg viewBox="0 0 396 186" data-background-color="#243837" preserveAspectRatio="xMidYMid meet" height="704" width="1500" xmlns="http://www.w3.org/2000/svg" xmlns:xlink="http://www.w3.org/1999/xlink"><g id="tight-bounds" transform="matrix(1,0,0,1,0.24000000000003752,0.04641698171592168)"><svg viewBox="0 0 395.5199999999999 185.90716603656816" height="185.90716603656816" width="395.5199999999999"><g><svg viewBox="0 0 397.4975999999999 186.83670186675099" height="185.90716603656816" width="395.5199999999999"><g><rect width="397.4975999999999" height="5.72256141091988" x="0" y="102.67723790891634" fill="#fe7833" opacity="1" stroke-width="0" stroke="transparent" fill-opacity="1" class="rect-qz-0" data-fill-palette-color="secondary" rx="1%" id="qz-0" data-palette-color="#fe7833"></rect></g><g transform="matrix(1,0,0,1,0.9887999999999693,123.38032657355319)"><svg viewBox="0 0 395.52 63.4563752931978" height="63.4563752931978" width="395.52"><g id="textblocktransform"><svg viewBox="0 0 395.52 63.4563752931978" height="63.4563752931978" width="395.52" id="textblock"><g><svg viewBox="0 0 395.52 63.4563752931978" height="63.4563752931978" width="395.52"><g transform="matrix(1,0,0,1,0,0)"><svg width="395.52" viewBox="0.4 -37.75 319.72 51.3" height="63.4563752931978" data-palette-color="#fe7833"><path d="M3.7 0L3.8-31.25Q3.8-32.05 3.83-32.77 3.85-33.5 3.95-34.5L3.95-34.5Q3.05-34.45 2.18-34.4 1.3-34.35 0.4-34.3L0.4-34.3 0.4-36.4Q2.6-36.4 3.83-36.6 5.05-36.8 5.68-37.1 6.3-37.4 6.65-37.75L6.65-37.75 8.1-37.75 8.1-22.85Q9.5-24.25 11.43-25.03 13.35-25.8 15.65-25.8L15.65-25.8Q18.85-25.8 21.43-24.25 24-22.7 25.5-19.85 27-17 27-13.1L27-13.1Q27-8.85 25.15-5.73 23.3-2.6 20.35-0.9 17.4 0.8 14 0.8L14 0.8Q12.3 0.8 10.28 0.18 8.25-0.45 6.65-2.25L6.65-2.25 5.45 0 3.7 0ZM8.1-20.5L8.1-7.85Q8.1-5.2 8.95-3.78 9.8-2.35 11.15-1.8 12.5-1.25 14-1.25L14-1.25Q16.4-1.25 18.15-2.6 19.9-3.95 20.88-6.33 21.85-8.7 21.85-11.85L21.85-11.85Q21.85-15.25 21-17.82 20.15-20.4 18.45-21.88 16.75-23.35 14.15-23.35L14.15-23.35Q12.5-23.35 10.88-22.58 9.25-21.8 8.1-20.5L8.1-20.5ZM41.85 0.8L41.85 0.8Q39.15 0.8 37.32-0.2 35.5-1.2 34.57-3.6 33.65-6 33.65-10.1L33.65-10.1 33.65-19Q33.65-19.8 33.67-20.6 33.7-21.4 33.85-22.25L33.85-22.25Q33-22.2 32.12-22.18 31.25-22.15 30.4-22.1L30.4-22.1 30.4-24.15 31.95-24.15Q34.1-24.15 35.07-24.58 36.05-25 36.6-25.5L36.6-25.5 38.05-25.5 38.05-10.25Q38.05-5.95 39.27-3.83 40.5-1.7 43.45-1.75L43.45-1.75Q45.35-1.8 47.07-2.93 48.8-4.05 49.85-5.6L49.85-5.6 49.85-18.45Q49.85-19.65 49.9-20.53 49.95-21.4 50.1-22.25L50.1-22.25Q49.2-22.2 48.3-22.18 47.4-22.15 46.5-22.1L46.5-22.1 46.5-24.15 48.05-24.15Q50.2-24.15 51.17-24.58 52.15-25 52.7-25.5L52.7-25.5 54.15-25.5 54.1-6.6Q54.1-5.8 54.05-4.35 54-2.9 53.9-1.9L53.9-1.9Q54.8-1.95 55.7-2 56.6-2.05 57.5-2.1L57.5-2.1 57.5 0 50.35 0Q50.2-0.85 50.12-1.6 50.05-2.35 50-3L50-3Q48.45-1.45 46.25-0.33 44.05 0.8 41.85 0.8ZM71.85 0.8L71.85 0.8Q68.8 0.8 66.35-0.73 63.9-2.25 62.47-5.1 61.05-7.95 61.05-11.8L61.05-11.8Q61.05-15.9 62.7-19.05 64.35-22.2 67.27-24 70.2-25.8 73.9-25.8L73.9-25.8Q75.55-25.8 77.17-25.38 78.8-24.95 79.75-24.4L79.75-24.4 79.75-31.25Q79.75-32.05 79.77-32.77 79.8-33.5 79.9-34.5L79.9-34.5Q79-34.45 78.12-34.4 77.25-34.35 76.35-34.3L76.35-34.3 76.35-36.4Q78.55-36.4 79.75-36.6 80.95-36.8 81.57-37.1 82.2-37.4 82.55-37.75L82.55-37.75 84-37.75 84-5.3Q84-4.5 83.95-3.7 83.9-2.9 83.8-1.9L83.8-1.9Q84.7-1.95 85.57-2 86.45-2.05 87.35-2.1L87.35-2.1 87.35 0 80.2 0Q80.05-0.75 79.97-1.38 79.9-2 79.85-2.6L79.85-2.6Q78.45-1.05 76.4-0.13 74.35 0.8 71.85 0.8ZM73.65-1.65L73.65-1.65Q75.3-1.65 76.97-2.6 78.65-3.55 79.75-4.95L79.75-4.95Q79.7-5.55 79.7-6.23 79.7-6.9 79.7-7.7L79.7-7.7 79.75-22.1Q78.55-23 77.12-23.43 75.7-23.85 74.2-23.85L74.2-23.85Q71.7-23.85 69.85-22.4 68-20.95 67.05-18.35 66.1-15.75 66.2-12.25L66.2-12.25Q66.3-9.2 67.17-6.8 68.05-4.4 69.67-3.03 71.3-1.65 73.65-1.65ZM103.09 13.55L103.09 13.55Q98.59 13.55 95.84 12.55 93.09 11.55 91.84 10 90.59 8.45 90.59 6.8L90.59 6.8Q90.59 5.25 91.32 4.08 92.04 2.9 93.12 2.05 94.19 1.2 95.19 0.8L95.19 0.8Q93.59 0.25 92.67-0.68 91.74-1.6 91.74-3.15L91.74-3.15Q91.74-4.9 93.14-6.43 94.54-7.95 96.74-8.3L96.74-8.3Q94.44-9.4 93.07-11.35 91.69-13.3 91.69-15.9L91.69-15.9Q91.69-18.9 93.24-21.13 94.79-23.35 97.22-24.58 99.64-25.8 102.24-25.8L102.24-25.8Q103.89-25.8 105.54-25.33 107.19-24.85 108.59-23.95L108.59-23.95Q109.09-25.35 110.02-26.45 110.94-27.55 112.14-28.18 113.34-28.8 114.64-28.8L114.64-28.8Q115.94-28.8 116.62-28.13 117.29-27.45 117.29-26.3L117.29-26.3Q117.29-25.95 117.09-25.45 116.89-24.95 116.42-24.6 115.94-24.25 115.14-24.25L115.14-24.25Q114.29-24.25 113.74-24.75 113.19-25.25 113.04-26L113.04-26Q111.79-25.8 111.09-24.83 110.39-23.85 110.14-22.7L110.14-22.7Q111.34-21.6 112.07-20.05 112.79-18.5 112.79-16.75L112.79-16.75Q112.79-13.95 111.32-11.75 109.84-9.55 107.44-8.33 105.04-7.1 102.24-7.1L102.24-7.1Q101.29-7.1 100.59-7.23 99.89-7.35 98.89-7.35L98.89-7.35Q97.04-7.35 95.89-6.45 94.74-5.55 95.09-4.3L95.09-4.3Q95.49-3.1 97.54-2.78 99.59-2.45 103.04-2.3L103.04-2.3Q106.89-2.15 109.64-1.4 112.39-0.65 113.87 0.93 115.34 2.5 115.34 5.2L115.34 5.2Q115.34 7.2 114.27 8.78 113.19 10.35 111.42 11.4 109.64 12.45 107.47 13 105.29 13.55 103.09 13.55ZM103.04 11.6L103.04 11.6Q107.34 11.6 109.74 10 112.14 8.4 112.14 6.25L112.14 6.25Q112.14 4.4 110.89 3.43 109.64 2.45 107.49 2.08 105.34 1.7 102.54 1.65L102.54 1.65Q101.19 1.6 99.89 1.53 98.59 1.45 97.39 1.25L97.39 1.25Q96.04 2.15 95.29 3.45 94.54 4.75 94.54 6.2L94.54 6.2Q94.54 8.65 96.87 10.13 99.19 11.6 103.04 11.6ZM102.39-8.9L102.39-8.9Q104.24-8.9 105.47-9.8 106.69-10.7 107.32-12.25 107.94-13.8 107.94-15.75L107.94-15.75Q107.94-17.95 107.29-19.85 106.64-21.75 105.37-22.9 104.09-24.05 102.14-24.05L102.14-24.05Q99.44-24.05 97.97-22.03 96.49-20 96.49-17L96.49-17Q96.49-14.6 97.19-12.78 97.89-10.95 99.22-9.93 100.54-8.9 102.39-8.9ZM130.54 0.8L130.54 0.8Q127.09 0.8 124.32-0.83 121.54-2.45 119.94-5.43 118.34-8.4 118.34-12.45L118.34-12.45Q118.34-15.95 119.92-19 121.49-22.05 124.34-23.93 127.19-25.8 130.94-25.8L130.94-25.8Q133.04-25.8 134.87-25.13 136.69-24.45 138.09-23.08 139.49-21.7 140.29-19.63 141.09-17.55 141.09-14.75L141.09-14.75 123.49-14.45Q123.49-10.65 124.32-7.78 125.14-4.9 126.99-3.33 128.84-1.75 131.74-1.75L131.74-1.75Q133.29-1.75 134.92-2.3 136.54-2.85 137.94-3.8 139.34-4.75 140.19-5.9L140.19-5.9 141.39-4.9Q140.04-2.8 138.14-1.55 136.24-0.3 134.24 0.25 132.24 0.8 130.54 0.8ZM123.64-16.55L123.64-16.55 136.39-16.55Q136.39-18.35 135.87-20.03 135.34-21.7 134.14-22.78 132.94-23.85 130.99-23.85L130.99-23.85Q128.09-23.85 126.17-22.13 124.24-20.4 123.64-16.55ZM154.59 0.8L154.59 0.8Q153.44 0.8 152.24 0.48 151.04 0.15 150.01-0.8 148.99-1.75 148.39-3.58 147.79-5.4 147.79-8.4L147.79-8.4 147.89-22.9 144.04-22.85 144.04-25Q145.34-25.05 146.69-25.98 148.04-26.9 149.11-28.5 150.19-30.1 150.59-32L150.59-32 152.29-32 152.29-25 160.69-25 160.69-23.05 152.29-22.95 152.19-9.05Q152.19-6.8 152.56-5.23 152.94-3.65 153.79-2.85 154.64-2.05 155.99-2.05L155.99-2.05Q157.39-2.05 158.61-2.85 159.84-3.65 160.79-5.05L160.79-5.05 162.14-3.95Q161.04-2.3 159.96-1.35 158.89-0.4 157.89 0.08 156.89 0.55 156.04 0.68 155.19 0.8 154.59 0.8ZM179.18 0L179.28-31.25Q179.28-32.05 179.31-32.77 179.33-33.5 179.43-34.5L179.43-34.5Q178.53-34.45 177.66-34.4 176.78-34.35 175.88-34.3L175.88-34.3 175.88-36.4Q178.08-36.4 179.31-36.6 180.53-36.8 181.16-37.1 181.78-37.4 182.13-37.75L182.13-37.75 183.58-37.75 183.58-22.85Q184.98-24.25 186.91-25.03 188.83-25.8 191.13-25.8L191.13-25.8Q194.33-25.8 196.91-24.25 199.48-22.7 200.98-19.85 202.48-17 202.48-13.1L202.48-13.1Q202.48-8.85 200.63-5.73 198.78-2.6 195.83-0.9 192.88 0.8 189.48 0.8L189.48 0.8Q187.78 0.8 185.76 0.18 183.73-0.45 182.13-2.25L182.13-2.25 180.93 0 179.18 0ZM183.58-20.5L183.58-7.85Q183.58-5.2 184.43-3.78 185.28-2.35 186.63-1.8 187.98-1.25 189.48-1.25L189.48-1.25Q191.88-1.25 193.63-2.6 195.38-3.95 196.36-6.33 197.33-8.7 197.33-11.85L197.33-11.85Q197.33-15.25 196.48-17.82 195.63-20.4 193.93-21.88 192.23-23.35 189.63-23.35L189.63-23.35Q187.98-23.35 186.36-22.58 184.73-21.8 183.58-20.5L183.58-20.5ZM217.33 0.8L217.33 0.8Q214.63 0.8 212.81-0.2 210.98-1.2 210.06-3.6 209.13-6 209.13-10.1L209.13-10.1 209.13-19Q209.13-19.8 209.16-20.6 209.18-21.4 209.33-22.25L209.33-22.25Q208.48-22.2 207.61-22.18 206.73-22.15 205.88-22.1L205.88-22.1 205.88-24.15 207.43-24.15Q209.58-24.15 210.56-24.58 211.53-25 212.08-25.5L212.08-25.5 213.53-25.5 213.53-10.25Q213.53-5.95 214.76-3.83 215.98-1.7 218.93-1.75L218.93-1.75Q220.83-1.8 222.56-2.93 224.28-4.05 225.33-5.6L225.33-5.6 225.33-18.45Q225.33-19.65 225.38-20.53 225.43-21.4 225.58-22.25L225.58-22.25Q224.68-22.2 223.78-22.18 222.88-22.15 221.98-22.1L221.98-22.1 221.98-24.15 223.53-24.15Q225.68-24.15 226.66-24.58 227.63-25 228.18-25.5L228.18-25.5 229.63-25.5 229.58-6.6Q229.58-5.8 229.53-4.35 229.48-2.9 229.38-1.9L229.38-1.9Q230.28-1.95 231.18-2 232.08-2.05 232.98-2.1L232.98-2.1 232.98 0 225.83 0Q225.68-0.85 225.61-1.6 225.53-2.35 225.48-3L225.48-3Q223.93-1.45 221.73-0.33 219.53 0.8 217.33 0.8ZM247.33 0.8L247.33 0.8Q244.28 0.8 241.83-0.73 239.38-2.25 237.95-5.1 236.53-7.95 236.53-11.8L236.53-11.8Q236.53-15.9 238.18-19.05 239.83-22.2 242.75-24 245.68-25.8 249.38-25.8L249.38-25.8Q251.03-25.8 252.65-25.38 254.28-24.95 255.23-24.4L255.23-24.4 255.23-31.25Q255.23-32.05 255.25-32.77 255.28-33.5 255.38-34.5L255.38-34.5Q254.48-34.45 253.6-34.4 252.73-34.35 251.83-34.3L251.83-34.3 251.83-36.4Q254.03-36.4 255.23-36.6 256.43-36.8 257.05-37.1 257.68-37.4 258.03-37.75L258.03-37.75 259.48-37.75 259.48-5.3Q259.48-4.5 259.43-3.7 259.38-2.9 259.28-1.9L259.28-1.9Q260.18-1.95 261.05-2 261.93-2.05 262.83-2.1L262.83-2.1 262.83 0 255.68 0Q255.53-0.75 255.45-1.38 255.38-2 255.33-2.6L255.33-2.6Q253.93-1.05 251.88-0.13 249.83 0.8 247.33 0.8ZM249.13-1.65L249.13-1.65Q250.78-1.65 252.45-2.6 254.13-3.55 255.23-4.95L255.23-4.95Q255.18-5.55 255.18-6.23 255.18-6.9 255.18-7.7L255.18-7.7 255.23-22.1Q254.03-23 252.6-23.43 251.18-23.85 249.68-23.85L249.68-23.85Q247.18-23.85 245.33-22.4 243.48-20.95 242.53-18.35 241.58-15.75 241.68-12.25L241.68-12.25Q241.78-9.2 242.65-6.8 243.53-4.4 245.15-3.03 246.78-1.65 249.13-1.65ZM277.23 0.8L277.23 0.8Q274.18 0.8 271.73-0.73 269.28-2.25 267.85-5.1 266.43-7.95 266.43-11.8L266.43-11.8Q266.43-15.9 268.08-19.05 269.73-22.2 272.65-24 275.58-25.8 279.28-25.8L279.28-25.8Q280.93-25.8 282.55-25.38 284.18-24.95 285.13-24.4L285.13-24.4 285.13-31.25Q285.13-32.05 285.15-32.77 285.18-33.5 285.28-34.5L285.28-34.5Q284.38-34.45 283.5-34.4 282.63-34.35 281.73-34.3L281.73-34.3 281.73-36.4Q283.93-36.4 285.13-36.6 286.33-36.8 286.95-37.1 287.58-37.4 287.93-37.75L287.93-37.75 289.38-37.75 289.38-5.3Q289.38-4.5 289.33-3.7 289.28-2.9 289.18-1.9L289.18-1.9Q290.08-1.95 290.95-2 291.83-2.05 292.73-2.1L292.73-2.1 292.73 0 285.58 0Q285.43-0.75 285.35-1.38 285.28-2 285.23-2.6L285.23-2.6Q283.83-1.05 281.78-0.13 279.73 0.8 277.23 0.8ZM279.03-1.65L279.03-1.65Q280.68-1.65 282.35-2.6 284.03-3.55 285.13-4.95L285.13-4.95Q285.08-5.55 285.08-6.23 285.08-6.9 285.08-7.7L285.08-7.7 285.13-22.1Q283.93-23 282.5-23.43 281.08-23.85 279.58-23.85L279.58-23.85Q277.08-23.85 275.23-22.4 273.38-20.95 272.43-18.35 271.48-15.75 271.58-12.25L271.58-12.25Q271.68-9.2 272.55-6.8 273.43-4.4 275.05-3.03 276.68-1.65 279.03-1.65ZM299.97 13.55L299.97 13.55Q298.42 13.55 297.32 12.8 296.22 12.05 296.22 10.5L296.22 10.5Q296.22 9.6 296.82 8.85 297.42 8.1 298.37 8.1L298.37 8.1Q299.57 8.05 300 8.85 300.42 9.65 300.42 10.25L300.42 10.25Q300.42 10.4 300.42 10.58 300.42 10.75 300.37 10.95L300.37 10.95Q300.52 11.05 300.92 11.05L300.92 11.05Q301.52 11.05 302.22 10.55 302.92 10.05 303.47 9.1L303.47 9.1Q304.12 8 305 5.8 305.87 3.6 306.97 0.55L306.97 0.55 299.17-16.15Q297.87-18.95 297.3-20.6 296.72-22.25 296.52-23.05L296.52-23.05 294.12-22.95 294.12-25 304.47-25 304.47-23.5 304.27-23.5Q302.17-23.35 301.97-21.93 301.77-20.5 303.12-17.6L303.12-17.6 308.97-5.05Q310.12-8.25 311.17-11.38 312.22-14.5 313.27-17.6L313.27-17.6Q313.67-18.7 314.1-19.88 314.52-21.05 314.95-21.98 315.37-22.9 315.72-23.15L315.72-23.15 312.27-22.95 312.27-25 320.12-25 320.12-23.5Q318.27-22.8 317.35-21.18 316.42-19.55 315.47-17L315.47-17 309.22 0.45Q307.72 4.65 306.47 7.58 305.22 10.5 303.72 12.03 302.22 13.55 299.97 13.55Z" opacity="1" transform="matrix(1,0,0,1,0,0)" fill="#fe7833" class="wordmark-text-0" data-fill-palette-color="primary" id="text-0"></path></svg></g></svg></g></svg></g></svg></g><g transform="matrix(1,0,0,1,156.75631468549022,0)"><svg viewBox="0 0 83.98497062901947 87.69671065519937" height="87.69671065519937" width="83.98497062901947"><g><svg xmlns="http://www.w3.org/2000/svg" xmlns:xlink="http://www.w3.org/1999/xlink" version="1.1" x="8" y="0" viewBox="7.006836 1.49990840292822 37.98632800000001 49.000183197071784" style="enable-background:new 0 0 52 52;" xml:space="preserve" height="87.69671065519937" width="67.98497062901947" class="icon-icon-0" data-fill-palette-color="accent" id="icon-0"><g fill="#fe7833" data-fill-palette-color="accent"><g fill="#fe7833" data-fill-palette-color="accent"><g fill="#fe7833" data-fill-palette-color="accent"><g fill="#fe7833" data-fill-palette-color="accent"><path d="M26 30.729c-2.837 0-5.146-2.309-5.146-5.146 0-2.827 2.308-5.126 5.146-5.126s5.146 2.3 5.146 5.126c0 0.276-0.224 0.5-0.5 0.5s-0.5-0.224-0.5-0.5c0-2.275-1.86-4.126-4.146-4.126s-4.146 1.851-4.146 4.126c0 2.286 1.86 4.146 4.146 4.146 0.276 0 0.5 0.224 0.5 0.5S26.276 30.729 26 30.729z" fill="#fe7833" data-fill-palette-color="accent"></path></g><g fill="#fe7833" data-fill-palette-color="accent"><path d="M26 40.001c-2.837 0-5.146-2.3-5.146-5.127 0-0.276 0.224-0.5 0.5-0.5s0.5 0.224 0.5 0.5c0 2.275 1.86 4.127 4.146 4.127s4.146-1.852 4.146-4.127c0-2.286-1.86-4.146-4.146-4.145-0.276 0-0.5-0.224-0.5-0.5s0.224-0.5 0.5-0.5c2.837 0 5.146 2.309 5.146 5.145C31.146 37.701 28.837 40.001 26 40.001z" fill="#fe7833" data-fill-palette-color="accent"></path></g><g fill="#fe7833" data-fill-palette-color="accent"><path d="M26 42.353c-0.276 0-0.5-0.224-0.5-0.5v-2.352c0-0.276 0.224-0.5 0.5-0.5s0.5 0.224 0.5 0.5v2.352C26.5 42.129 26.276 42.353 26 42.353z" fill="#fe7833" data-fill-palette-color="accent"></path></g><g fill="#fe7833" data-fill-palette-color="accent"><path d="M26 21.457c-0.276 0-0.5-0.224-0.5-0.5V18.605c0-0.276 0.224-0.5 0.5-0.5s0.5 0.224 0.5 0.5v2.352C26.5 21.233 26.276 21.457 26 21.457z" fill="#fe7833" data-fill-palette-color="accent"></path></g></g></g><g fill="#fe7833" data-fill-palette-color="accent"><path d="M25.993 50.5c-10.469 0-18.986-8.518-18.986-18.986 0-6.264 6.627-15.088 12.186-21.388 0.184-0.207 0.5-0.226 0.706-0.044 0.207 0.183 0.227 0.499 0.044 0.706C14.498 16.958 8.007 25.563 8.007 31.514c0 9.918 8.069 17.986 17.986 17.986 9.925 0 18-8.068 18-17.986 0-6.316-7.494-15.688-11.961-20.712-0.184-0.206-0.165-0.522 0.041-0.705 0.206-0.185 0.521-0.165 0.706 0.041 5.572 6.266 12.214 15.062 12.214 21.376C44.993 41.983 36.47 50.5 25.993 50.5z" fill="#fe7833" data-fill-palette-color="accent"></path></g><g fill="#fe7833" data-fill-palette-color="accent"><path d="M25.993 11.479c-0.46 0-0.907 0-1.354-0.014-0.156 0-0.333 0-0.507-0.014-1.902-0.029-3.446-0.196-4.687-0.509-0.41-0.085-0.803-0.218-1.131-0.336-0.46-0.148-0.908-0.358-1.353-0.635-1.479-0.912-2.23-2.37-2.23-4.333 0-1.344 0.345-2.325 1.054-3.001 1.381-1.316 3.821-1.197 6.912-1.05 2.122 0.103 4.495 0.103 6.614 0 3.087-0.147 5.526-0.266 6.905 1.048 0.708 0.675 1.053 1.657 1.054 3.003 0 1.925-0.729 3.361-2.166 4.268-0.027 0.032-0.058 0.06-0.092 0.083-0.374 0.249-0.834 0.463-1.368 0.636-0.335 0.121-0.714 0.233-1.122 0.331-1.25 0.303-2.793 0.466-4.714 0.496-0.141 0.013-0.315 0.013-0.489 0.013C26.901 11.479 26.454 11.479 25.993 11.479zM24.655 10.465c0.458 0.014 0.885 0.021 1.356 0.014 0.444 0 0.874 0 1.292-0.013 0.163 0 0.31 0 0.456-0.012 1.879-0.031 3.35-0.184 4.529-0.47 0.37-0.089 0.714-0.191 1.032-0.305 0.415-0.135 0.761-0.288 1.043-0.461 0.033-0.04 0.072-0.074 0.116-0.101 1.222-0.73 1.791-1.836 1.791-3.479 0-1.057-0.243-1.802-0.744-2.279-1.068-1.019-3.43-0.906-6.168-0.773-2.143 0.103-4.564 0.104-6.71 0-2.739-0.133-5.104-0.245-6.173 0.774-0.5 0.477-0.744 1.222-0.744 2.278 0 1.615 0.575 2.754 1.757 3.483 0.377 0.235 0.753 0.411 1.15 0.539 0.311 0.111 0.662 0.23 1.031 0.307 1.185 0.299 2.654 0.456 4.512 0.485C24.36 10.466 24.512 10.467 24.655 10.465zM34.735 9.573h0.01H34.735z" fill="#fe7833" data-fill-palette-color="accent"></path></g></g></svg></g></svg></g><g><rect width="80.22319468549024" height="5.72256141091988" y="80.97414924427949" x="240.7412853145097" fill="#fe7833" data-fill-palette-color="secondary"></rect><rect width="80.22319468549024" height="5.72256141091988" y="80.97414924427949" x="76.53311999999998" fill="#fe7833" data-fill-palette-color="secondary"></rect></g></svg></g><defs></defs></svg><rect width="395.5199999999999" height="185.90716603656816" fill="none" stroke="none" visibility="hidden"></rect></g></svg></g></svg>